<?xml version="1.0" standalone="no"?>
<!DOCTYPE svg PUBLIC "-//W3C//DTD SVG 20010904//EN"
 "http://www.w3.org/TR/2001/REC-SVG-20010904/DTD/svg10.dtd">
<svg version="1.0" xmlns="http://www.w3.org/2000/svg"
 width="512.000000pt" height="512.000000pt" viewBox="0 0 512.000000 512.000000"
 preserveAspectRatio="xMidYMid meet">

<g transform="translate(0.000000,512.000000) scale(0.100000,-0.100000)"
fill="#000000" stroke="none">
<path d="M2370 5023 c-274 -27 -503 -81 -721 -168 -916 -369 -1521 -1228
-1556 -2210 -24 -680 223 -1320 697 -1809 328 -338 734 -570 1195 -681 205
-50 358 -68 580 -68 345 0 684 69 971 197 l79 35 -247 1 -248 0 0 116 c0 109
-1 115 -19 109 -11 -3 -75 -17 -143 -31 -153 -31 -463 -44 -628 -25 -963 110
-1720 862 -1840 1831 -15 122 -12 381 5 512 73 553 371 1062 815 1393 301 224
637 358 1010 405 122 15 381 12 512 -5 839 -111 1534 -725 1743 -1540 48 -185
65 -327 65 -528 0 -156 -22 -370 -46 -455 l-6 -22 200 0 c199 0 200 0 205 23
22 86 40 293 40 457 -1 392 -80 736 -252 1085 -136 276 -285 480 -503 690
-409 395 -914 628 -1487 685 -96 9 -341 11 -421 3z"/>
<path d="M2522 4070 c-44 -10 -100 -65 -112 -110 -6 -21 -10 -237 -10 -532 l0
-496 47 14 c25 8 76 14 113 14 37 0 88 -6 113 -14 l47 -14 0 491 c0 271 -5
509 -9 531 -5 21 -24 54 -43 73 -29 30 -43 37 -98 48 -8 1 -30 -1 -48 -5z"/>
<path d="M1795 2346 c-192 -112 -364 -217 -382 -234 -86 -84 -60 -240 49 -302
51 -28 128 -31 178 -5 19 10 187 105 372 212 l337 195 -59 55 c-69 64 -117
151 -127 231 -3 28 -9 52 -12 51 -3 0 -163 -92 -356 -203z"/>
</g>
</svg>
